<?xml version="1.0" encoding="UTF-8"?> <svg xmlns="http://www.w3.org/2000/svg" width="190" height="38" viewBox="0 0 190 38" fill="none"><path d="M41.6877 14.1854H37.332V10.9976H49.4836V14.1854H45.0649V27.4101H41.6877V14.1854Z" fill="#2F2F2F"></path><path d="M51.5039 10.9976H61.6986V14.1854H54.8495V17.5626H60.3414V20.7504H54.8495V24.2223H61.6986V27.4101H51.5039V10.9976Z" fill="#2F2F2F"></path><path d="M71.4861 10.7134C74.8317 10.7134 77.6408 12.4493 79.0611 15.069L76.1574 16.6787C75.1789 15.0059 73.6324 13.9328 71.4861 13.9328C68.6139 13.9328 66.373 16.3 66.373 19.1721C66.373 22.0443 68.6139 24.4115 71.4861 24.4115C73.6008 24.4115 75.1789 23.3384 76.1574 21.6656L79.0611 23.2753C77.6724 25.895 74.8317 27.6309 71.4861 27.6309C66.8149 27.6309 63.0273 23.8434 63.0273 19.1721C63.0273 14.5009 66.8149 10.7134 71.4861 10.7134Z" fill="#2F2F2F"></path><path d="M81.457 10.9976H84.8027V17.531H91.9042V10.9976H95.2499V27.4101H91.9042V20.7504H84.8027V27.4101H81.457V10.9976Z" fill="#2F2F2F"></path><path d="M115.858 27.4101L107.463 16.7104V27.4101H104.117V10.9976H106.989L115.385 21.6973V10.9976H118.731V27.4101H115.858Z" fill="#2F2F2F"></path><path d="M127.222 10.9976H130.189L137.291 27.4101H133.787L132.209 23.6857H125.234L123.655 27.4101H120.184L127.222 10.9976ZM130.946 20.7188L128.705 15.3848L126.433 20.7188H130.946Z" fill="#2F2F2F"></path><path d="M140.102 14.1854H135.746V10.9976H147.898V14.1854H143.479V27.4101H140.102V14.1854Z" fill="#2F2F2F"></path><path d="M149.918 10.9976H153.264V27.4101H149.918V10.9976Z" fill="#2F2F2F"></path><path d="M163.99 27.6944C159.319 27.6944 155.531 23.9069 155.531 19.2356C155.531 14.5644 159.319 10.7769 163.99 10.7769C168.661 10.7769 172.449 14.5644 172.449 19.2356C172.48 23.9069 168.693 27.6944 163.99 27.6944ZM163.99 24.4435C166.862 24.4435 169.103 22.0763 169.103 19.2041C169.103 16.3319 166.862 13.9647 163.99 13.9647C161.118 13.9647 158.877 16.3319 158.877 19.2041C158.877 22.0763 161.118 24.4435 163.99 24.4435Z" fill="#2F2F2F"></path><path d="M186.495 27.4101L178.1 16.7104V27.4101H174.754V10.9976H177.626L186.022 21.6973V10.9976H189.367V27.4101H186.495Z" fill="#2F2F2F"></path><path d="M28.3116 20.6235C28.3748 20.15 28.3748 19.6766 28.3748 19.1716C28.3748 18.6666 28.3432 18.1932 28.3116 17.7197H21.4626L27.8066 15.1C27.5226 14.1847 27.1754 13.2694 26.7019 12.4172L20.3579 15.0685L25.2185 10.2078C24.6188 9.48189 23.9244 8.75595 23.1669 8.15626L18.3063 13.0169L20.926 6.67281C20.1054 6.23094 19.19 5.85219 18.2432 5.56812L15.6235 11.9122V5.06313C15.15 5 14.6766 5 14.1716 5C13.6666 5 13.1932 5.03157 12.7197 5.06313V11.9122L10.1 5.56812C9.18471 5.85219 8.26939 6.19937 7.41721 6.67281L10.0369 13.0169L5.23939 8.15626C4.51345 8.75595 3.78751 9.45032 3.18782 10.2078L8.04846 15.0685L1.70438 12.4488C1.2625 13.2694 0.883752 14.1847 0.599689 15.1316L6.94377 17.7513H0.0631254C2.39863e-07 18.2247 0 18.6982 0 19.2032C0 19.7082 0.0315628 20.1816 0.0631254 20.655H6.9122L0.568126 23.2747C0.852189 24.19 1.19938 25.1054 1.67282 25.9575L8.01689 23.3379L3.18782 28.1985C3.78751 28.9244 4.48189 29.6504 5.23939 30.2501L10.1 25.3894L7.48033 31.7335C8.30096 32.1754 9.21627 32.5541 10.1631 32.8382L12.7828 26.4941V33.3432C13.2563 33.4063 13.7297 33.4063 14.2347 33.4063C14.7397 33.4063 15.2132 33.3748 15.6866 33.3432V26.4941L18.3063 32.8382C19.2216 32.5541 20.1369 32.2069 20.9891 31.7335L18.3694 25.3894L23.1985 30.1869C23.9244 29.5872 24.6504 28.8929 25.2501 28.1354L20.3894 23.2747L26.7335 25.8944C27.1754 25.0738 27.5541 24.1585 27.8382 23.2116L21.4941 20.5919H28.3116V20.6235ZM14.2032 24.3794C11.331 24.3794 8.99533 22.0438 8.99533 19.1716C8.99533 16.2994 11.331 13.9638 14.2032 13.9638C17.0754 13.9638 19.411 16.2678 19.411 19.14C19.411 22.0438 17.0754 24.3794 14.2032 24.3794Z" fill="#2F2F2F"></path></svg> 